<mxfile host="app.diagrams.net" modified="2021-07-23T07:29:30.711Z" agent="5.0 (Macintosh; Intel Mac OS X 10_15_7) AppleWebKit/537.36 (KHTML, like Gecko) Chrome/91.0.4472.114 Safari/537.36" etag="eUQ1Hesm20vF91rqrOxP" version="14.8.4" type="github">
  <diagram id="WoT5uaKJ-usMWFgP7Kun" name="Page-1">
    <mxGraphModel dx="2066" dy="769" grid="1" gridSize="10" guides="1" tooltips="1" connect="1" arrows="1" fold="1" page="1" pageScale="1" pageWidth="850" pageHeight="1100" background="#000000" math="0" shadow="0">
      <root>
        <mxCell id="0" />
        <mxCell id="1" parent="0" />
        <mxCell id="rd8PbmdwJ4o2iaEtj34t-1" value="" style="whiteSpace=wrap;html=1;fillColor=#647687;strokeColor=#314354;fontColor=#ffffff;rounded=1;" vertex="1" parent="1">
          <mxGeometry x="210" y="220" width="680" height="110" as="geometry" />
        </mxCell>
        <mxCell id="rd8PbmdwJ4o2iaEtj34t-2" value="API 体系" style="text;html=1;strokeColor=none;fillColor=none;align=center;verticalAlign=middle;whiteSpace=wrap;fontColor=#FFFFFF;fontStyle=1;fontSize=14;rounded=1;" vertex="1" parent="1">
          <mxGeometry x="212" y="222" width="60" height="20" as="geometry" />
        </mxCell>
        <mxCell id="rd8PbmdwJ4o2iaEtj34t-3" value="" style="whiteSpace=wrap;html=1;strokeColor=#3700CC;fontColor=#ffffff;fillColor=#6a00ff;rounded=1;" vertex="1" parent="1">
          <mxGeometry x="220" y="250" width="290" height="70" as="geometry" />
        </mxCell>
        <mxCell id="rd8PbmdwJ4o2iaEtj34t-4" value="" style="whiteSpace=wrap;html=1;strokeColor=#3700CC;fontColor=#ffffff;fillColor=#6a00ff;rounded=1;" vertex="1" parent="1">
          <mxGeometry x="520" y="250" width="230" height="70" as="geometry" />
        </mxCell>
        <mxCell id="rd8PbmdwJ4o2iaEtj34t-5" value="Python&amp;nbsp; API 体系" style="text;html=1;strokeColor=none;fillColor=none;align=center;verticalAlign=middle;whiteSpace=wrap;fontColor=#FFFFFF;fontStyle=1;rounded=1;" vertex="1" parent="1">
          <mxGeometry x="220" y="250" width="100" height="20" as="geometry" />
        </mxCell>
        <mxCell id="rd8PbmdwJ4o2iaEtj34t-6" value="C++ API 体系" style="text;html=1;strokeColor=none;fillColor=none;align=center;verticalAlign=middle;whiteSpace=wrap;fontColor=#FFFFFF;fontStyle=1;rounded=1;" vertex="1" parent="1">
          <mxGeometry x="520" y="250" width="90" height="20" as="geometry" />
        </mxCell>
        <mxCell id="rd8PbmdwJ4o2iaEtj34t-7" value="" style="whiteSpace=wrap;html=1;fillColor=#6a00ff;strokeColor=#3700CC;fontColor=#ffffff;rounded=1;" vertex="1" parent="1">
          <mxGeometry x="760" y="250" width="120" height="70" as="geometry" />
        </mxCell>
        <mxCell id="rd8PbmdwJ4o2iaEtj34t-8" value="其他编程语言 (java)" style="text;html=1;strokeColor=none;fillColor=none;align=center;verticalAlign=middle;whiteSpace=wrap;fontColor=#FFFFFF;fontStyle=1;rounded=1;" vertex="1" parent="1">
          <mxGeometry x="765" y="275" width="110" height="20" as="geometry" />
        </mxCell>
        <mxCell id="rd8PbmdwJ4o2iaEtj34t-9" value="推理" style="whiteSpace=wrap;html=1;strokeColor=#006EAF;fontColor=#ffffff;fillColor=#6666FF;fontStyle=1;rounded=1;" vertex="1" parent="1">
          <mxGeometry x="230" y="275" width="80" height="35" as="geometry" />
        </mxCell>
        <mxCell id="rd8PbmdwJ4o2iaEtj34t-10" value="训练" style="whiteSpace=wrap;html=1;strokeColor=#006EAF;fontColor=#ffffff;fillColor=#6666FF;fontStyle=1;rounded=1;" vertex="1" parent="1">
          <mxGeometry x="330" y="275" width="80" height="35" as="geometry" />
        </mxCell>
        <mxCell id="rd8PbmdwJ4o2iaEtj34t-11" value="分布式" style="whiteSpace=wrap;html=1;strokeColor=#006EAF;fontColor=#ffffff;fillColor=#6666FF;fontStyle=1;rounded=1;" vertex="1" parent="1">
          <mxGeometry x="425" y="275" width="75" height="35" as="geometry" />
        </mxCell>
        <mxCell id="rd8PbmdwJ4o2iaEtj34t-12" value="推理" style="whiteSpace=wrap;html=1;strokeColor=#006EAF;fontColor=#ffffff;fillColor=#6666FF;fontStyle=1;rounded=1;" vertex="1" parent="1">
          <mxGeometry x="530" y="275" width="100" height="35" as="geometry" />
        </mxCell>
        <mxCell id="rd8PbmdwJ4o2iaEtj34t-13" value="自定义算子体系" style="whiteSpace=wrap;html=1;strokeColor=#006EAF;fontColor=#ffffff;fillColor=#6666FF;fontStyle=1;rounded=1;" vertex="1" parent="1">
          <mxGeometry x="640" y="275" width="100" height="35" as="geometry" />
        </mxCell>
        <mxCell id="rd8PbmdwJ4o2iaEtj34t-48" value="" style="group;fillColor=#647687;strokeColor=#314354;fontColor=#ffffff;rounded=1;" vertex="1" connectable="0" parent="1">
          <mxGeometry x="900" y="220" width="170" height="410" as="geometry" />
        </mxCell>
        <mxCell id="rd8PbmdwJ4o2iaEtj34t-49" value="" style="whiteSpace=wrap;html=1;fillColor=#647687;strokeColor=#314354;fontColor=#ffffff;rounded=1;" vertex="1" parent="rd8PbmdwJ4o2iaEtj34t-48">
          <mxGeometry width="170" height="410" as="geometry" />
        </mxCell>
        <mxCell id="rd8PbmdwJ4o2iaEtj34t-50" value="模型保存体系" style="text;html=1;strokeColor=none;fillColor=none;align=center;verticalAlign=middle;whiteSpace=wrap;fontColor=#FFFFFF;fontStyle=1;fontSize=14;rounded=1;" vertex="1" parent="rd8PbmdwJ4o2iaEtj34t-48">
          <mxGeometry x="-24" y="-9.077321428571429" width="150.56" height="44.323928571428574" as="geometry" />
        </mxCell>
        <mxCell id="rd8PbmdwJ4o2iaEtj34t-52" value="&lt;b&gt;模型保存API&lt;/b&gt;" style="whiteSpace=wrap;html=1;fillColor=#6a00ff;strokeColor=#3700CC;fontColor=#ffffff;rounded=1;" vertex="1" parent="rd8PbmdwJ4o2iaEtj34t-48">
          <mxGeometry x="9.44" y="26.964285714285715" width="150.56" height="51.25" as="geometry" />
        </mxCell>
        <mxCell id="rd8PbmdwJ4o2iaEtj34t-53" value="&lt;b&gt;动静模型保存转换&lt;/b&gt;" style="whiteSpace=wrap;html=1;fillColor=#6a00ff;strokeColor=#3700CC;fontColor=#ffffff;rounded=1;" vertex="1" parent="rd8PbmdwJ4o2iaEtj34t-48">
          <mxGeometry x="9.44" y="87.85714285714286" width="151.11" height="314.8214285714286" as="geometry" />
        </mxCell>
        <mxCell id="rd8PbmdwJ4o2iaEtj34t-61" value="" style="group;fillColor=#647687;strokeColor=#314354;fontColor=#ffffff;rounded=1;" vertex="1" connectable="0" parent="1">
          <mxGeometry x="140" y="220" width="60" height="410" as="geometry" />
        </mxCell>
        <mxCell id="rd8PbmdwJ4o2iaEtj34t-62" value="&lt;font style=&quot;font-size: 14px&quot;&gt;&lt;b&gt;量化系统&lt;/b&gt;&lt;/font&gt;" style="whiteSpace=wrap;html=1;fillColor=#647687;strokeColor=#314354;fontColor=#ffffff;rounded=1;" vertex="1" parent="rd8PbmdwJ4o2iaEtj34t-61">
          <mxGeometry width="60" height="410" as="geometry" />
        </mxCell>
        <mxCell id="rd8PbmdwJ4o2iaEtj34t-63" value="" style="whiteSpace=wrap;html=1;fillColor=#647687;strokeColor=#314354;fontColor=#ffffff;rounded=1;" vertex="1" parent="1">
          <mxGeometry x="70" y="770" width="1000" height="110" as="geometry" />
        </mxCell>
        <mxCell id="rd8PbmdwJ4o2iaEtj34t-64" value="X86 CPU" style="whiteSpace=wrap;html=1;fillColor=#6a00ff;strokeColor=#3700CC;fontColor=#ffffff;fontStyle=1;rounded=1;" vertex="1" parent="1">
          <mxGeometry x="80" y="800" width="160" height="70" as="geometry" />
        </mxCell>
        <mxCell id="rd8PbmdwJ4o2iaEtj34t-65" value="CUDA" style="whiteSpace=wrap;html=1;fillColor=#6a00ff;strokeColor=#3700CC;fontColor=#ffffff;fontStyle=1;rounded=1;" vertex="1" parent="1">
          <mxGeometry x="250" y="800" width="150" height="70" as="geometry" />
        </mxCell>
        <mxCell id="rd8PbmdwJ4o2iaEtj34t-66" value="ARM" style="whiteSpace=wrap;html=1;fillColor=#6a00ff;strokeColor=#3700CC;fontColor=#ffffff;fontStyle=1;rounded=1;" vertex="1" parent="1">
          <mxGeometry x="410" y="800" width="160" height="70" as="geometry" />
        </mxCell>
        <mxCell id="rd8PbmdwJ4o2iaEtj34t-67" value="NPU" style="whiteSpace=wrap;html=1;fillColor=#6a00ff;strokeColor=#3700CC;fontColor=#ffffff;fontStyle=1;rounded=1;" vertex="1" parent="1">
          <mxGeometry x="578" y="800" width="154" height="70" as="geometry" />
        </mxCell>
        <mxCell id="rd8PbmdwJ4o2iaEtj34t-68" value="DCU" style="whiteSpace=wrap;html=1;fillColor=#6a00ff;strokeColor=#3700CC;fontColor=#ffffff;fontStyle=1;rounded=1;" vertex="1" parent="1">
          <mxGeometry x="740" y="800" width="155" height="70" as="geometry" />
        </mxCell>
        <mxCell id="rd8PbmdwJ4o2iaEtj34t-69" value="..." style="whiteSpace=wrap;html=1;fillColor=#6a00ff;strokeColor=#3700CC;fontColor=#ffffff;fontStyle=1;rounded=1;" vertex="1" parent="1">
          <mxGeometry x="900" y="800" width="160" height="70" as="geometry" />
        </mxCell>
        <mxCell id="rd8PbmdwJ4o2iaEtj34t-70" value="设备支持体系" style="text;html=1;strokeColor=none;fillColor=none;align=center;verticalAlign=middle;whiteSpace=wrap;fontColor=#FFFFFF;fontStyle=1;fontSize=14;rounded=1;" vertex="1" parent="1">
          <mxGeometry x="68" y="773" width="100" height="20" as="geometry" />
        </mxCell>
        <mxCell id="rd8PbmdwJ4o2iaEtj34t-71" value="" style="group;fillColor=#647687;strokeColor=#314354;fontColor=#ffffff;rounded=1;" vertex="1" connectable="0" parent="1">
          <mxGeometry x="70" y="220" width="60" height="410" as="geometry" />
        </mxCell>
        <mxCell id="rd8PbmdwJ4o2iaEtj34t-72" value="&lt;font style=&quot;font-size: 14px&quot;&gt;&lt;b&gt;套件体系&lt;/b&gt;&lt;/font&gt;" style="whiteSpace=wrap;html=1;fillColor=#647687;strokeColor=#314354;fontColor=#ffffff;rounded=1;" vertex="1" parent="rd8PbmdwJ4o2iaEtj34t-71">
          <mxGeometry width="60" height="410" as="geometry" />
        </mxCell>
        <mxCell id="rd8PbmdwJ4o2iaEtj34t-79" value="" style="group;fillColor=#647687;strokeColor=#314354;fontColor=#ffffff;rounded=1;" vertex="1" connectable="0" parent="1">
          <mxGeometry x="210" y="420" width="680" height="100" as="geometry" />
        </mxCell>
        <mxCell id="rd8PbmdwJ4o2iaEtj34t-26" value="" style="whiteSpace=wrap;html=1;fillColor=#647687;strokeColor=#314354;fontColor=#ffffff;rounded=1;" vertex="1" parent="rd8PbmdwJ4o2iaEtj34t-79">
          <mxGeometry width="680" height="100" as="geometry" />
        </mxCell>
        <mxCell id="rd8PbmdwJ4o2iaEtj34t-27" value="内部表达体系" style="text;html=1;strokeColor=none;fillColor=none;align=center;verticalAlign=middle;whiteSpace=wrap;fontColor=#FFFFFF;fontStyle=1;fontSize=14;rounded=1;" vertex="1" parent="rd8PbmdwJ4o2iaEtj34t-79">
          <mxGeometry x="-14" y="3" width="120" height="18.75" as="geometry" />
        </mxCell>
        <mxCell id="rd8PbmdwJ4o2iaEtj34t-35" value="Program" style="whiteSpace=wrap;html=1;fillColor=#6a00ff;strokeColor=#3700CC;fontColor=#ffffff;fontStyle=1;rounded=1;" vertex="1" parent="rd8PbmdwJ4o2iaEtj34t-79">
          <mxGeometry x="10" y="30.004545454545454" width="360" height="26.709090909090907" as="geometry" />
        </mxCell>
        <mxCell id="rd8PbmdwJ4o2iaEtj34t-36" style="edgeStyle=orthogonalEdgeStyle;orthogonalLoop=1;jettySize=auto;html=1;exitX=0.5;exitY=1;exitDx=0;exitDy=0;" edge="1" parent="rd8PbmdwJ4o2iaEtj34t-79" source="rd8PbmdwJ4o2iaEtj34t-26" target="rd8PbmdwJ4o2iaEtj34t-26">
          <mxGeometry relative="1" as="geometry" />
        </mxCell>
        <mxCell id="rd8PbmdwJ4o2iaEtj34t-37" value="Imperative Autograd" style="whiteSpace=wrap;html=1;fillColor=#6a00ff;strokeColor=#3700CC;fontColor=#ffffff;fontStyle=1;rounded=1;" vertex="1" parent="rd8PbmdwJ4o2iaEtj34t-79">
          <mxGeometry x="390" y="30" width="280" height="63.07" as="geometry" />
        </mxCell>
        <mxCell id="rd8PbmdwJ4o2iaEtj34t-39" value="IR Graph" style="whiteSpace=wrap;html=1;fillColor=#6a00ff;strokeColor=#3700CC;fontColor=#ffffff;fontStyle=1;rounded=1;" vertex="1" parent="rd8PbmdwJ4o2iaEtj34t-79">
          <mxGeometry x="10" y="65.99545454545455" width="360" height="27.272727272727273" as="geometry" />
        </mxCell>
        <mxCell id="rd8PbmdwJ4o2iaEtj34t-96" value="" style="group;rounded=1;" vertex="1" connectable="0" parent="1">
          <mxGeometry x="70" y="640" width="1000" height="120" as="geometry" />
        </mxCell>
        <mxCell id="rd8PbmdwJ4o2iaEtj34t-47" value="" style="whiteSpace=wrap;html=1;fillColor=#647687;strokeColor=#314354;fontColor=#ffffff;rounded=1;" vertex="1" parent="rd8PbmdwJ4o2iaEtj34t-96">
          <mxGeometry width="1000" height="120" as="geometry" />
        </mxCell>
        <mxCell id="rd8PbmdwJ4o2iaEtj34t-54" value="底层表示体系" style="text;html=1;strokeColor=none;fillColor=none;align=center;verticalAlign=middle;whiteSpace=wrap;fontColor=#FFFFFF;fontStyle=1;fontSize=14;rounded=1;" vertex="1" parent="rd8PbmdwJ4o2iaEtj34t-96">
          <mxGeometry width="100" height="20" as="geometry" />
        </mxCell>
        <mxCell id="rd8PbmdwJ4o2iaEtj34t-57" value="" style="whiteSpace=wrap;html=1;fillColor=#6a00ff;strokeColor=#3700CC;fontColor=#ffffff;rounded=1;" vertex="1" parent="rd8PbmdwJ4o2iaEtj34t-96">
          <mxGeometry x="9.900990099009901" y="20" width="485.1485148514851" height="90" as="geometry" />
        </mxCell>
        <mxCell id="rd8PbmdwJ4o2iaEtj34t-58" value="" style="whiteSpace=wrap;html=1;strokeColor=#3700CC;fontColor=#ffffff;fillColor=#6a00ff;rounded=1;" vertex="1" parent="rd8PbmdwJ4o2iaEtj34t-96">
          <mxGeometry x="504.9504950495049" y="20" width="485.1485148514851" height="90" as="geometry" />
        </mxCell>
        <mxCell id="rd8PbmdwJ4o2iaEtj34t-97" value="飞桨内部底层表示" style="text;html=1;strokeColor=none;fillColor=none;align=center;verticalAlign=middle;whiteSpace=wrap;fontColor=#FFFFFF;fontStyle=1;rounded=1;" vertex="1" parent="rd8PbmdwJ4o2iaEtj34t-96">
          <mxGeometry x="9.9" y="20" width="110.1" height="20" as="geometry" />
        </mxCell>
        <mxCell id="rd8PbmdwJ4o2iaEtj34t-98" value="Tensor" style="whiteSpace=wrap;html=1;strokeColor=#006EAF;fontColor=#ffffff;fillColor=#6666FF;fontStyle=1;rounded=1;" vertex="1" parent="rd8PbmdwJ4o2iaEtj34t-96">
          <mxGeometry x="19.801980198019802" y="40" width="99.00990099009901" height="60" as="geometry" />
        </mxCell>
        <mxCell id="rd8PbmdwJ4o2iaEtj34t-99" value="Computational Ops" style="whiteSpace=wrap;html=1;strokeColor=#006EAF;fontColor=#ffffff;fillColor=#6666FF;fontStyle=1;rounded=1;" vertex="1" parent="rd8PbmdwJ4o2iaEtj34t-96">
          <mxGeometry x="148.5148514851485" y="40" width="99.00990099009901" height="60" as="geometry" />
        </mxCell>
        <mxCell id="rd8PbmdwJ4o2iaEtj34t-100" value="Control Ops" style="whiteSpace=wrap;html=1;strokeColor=#006EAF;fontColor=#ffffff;fillColor=#6666FF;fontStyle=1;rounded=1;" vertex="1" parent="rd8PbmdwJ4o2iaEtj34t-96">
          <mxGeometry x="267.3267326732673" y="40" width="99.00990099009901" height="60" as="geometry" />
        </mxCell>
        <mxCell id="rd8PbmdwJ4o2iaEtj34t-101" value="Comm Ops" style="whiteSpace=wrap;html=1;strokeColor=#006EAF;fontColor=#ffffff;fillColor=#6666FF;fontStyle=1;rounded=1;" vertex="1" parent="rd8PbmdwJ4o2iaEtj34t-96">
          <mxGeometry x="386.13861386138615" y="40" width="99.00990099009901" height="60" as="geometry" />
        </mxCell>
        <mxCell id="rd8PbmdwJ4o2iaEtj34t-102" value="飞桨自定义算子体系" style="text;html=1;strokeColor=none;fillColor=none;align=center;verticalAlign=middle;whiteSpace=wrap;fontColor=#FFFFFF;fontStyle=1;rounded=1;" vertex="1" parent="rd8PbmdwJ4o2iaEtj34t-96">
          <mxGeometry x="504.95" y="20" width="125.05" height="20" as="geometry" />
        </mxCell>
        <mxCell id="rd8PbmdwJ4o2iaEtj34t-103" value="Tensor" style="whiteSpace=wrap;html=1;strokeColor=#006EAF;fontColor=#ffffff;fillColor=#6666FF;fontStyle=1;rounded=1;" vertex="1" parent="rd8PbmdwJ4o2iaEtj34t-96">
          <mxGeometry x="524.7524752475248" y="40" width="227.72277227722773" height="60" as="geometry" />
        </mxCell>
        <mxCell id="rd8PbmdwJ4o2iaEtj34t-104" value="Custom ops" style="whiteSpace=wrap;html=1;strokeColor=#006EAF;fontColor=#ffffff;fillColor=#6666FF;fontStyle=1;rounded=1;" vertex="1" parent="rd8PbmdwJ4o2iaEtj34t-96">
          <mxGeometry x="762.3762376237623" y="40" width="217.82178217821783" height="60" as="geometry" />
        </mxCell>
        <mxCell id="rd8PbmdwJ4o2iaEtj34t-122" value="" style="group;rounded=1;" vertex="1" connectable="0" parent="1">
          <mxGeometry x="210" y="530" width="680" height="100" as="geometry" />
        </mxCell>
        <mxCell id="rd8PbmdwJ4o2iaEtj34t-14" value="" style="whiteSpace=wrap;html=1;fillColor=#647687;strokeColor=#314354;fontColor=#ffffff;rounded=1;" vertex="1" parent="rd8PbmdwJ4o2iaEtj34t-122">
          <mxGeometry width="680" height="100" as="geometry" />
        </mxCell>
        <mxCell id="rd8PbmdwJ4o2iaEtj34t-15" value="执行体系&amp;nbsp;" style="text;html=1;strokeColor=none;fillColor=none;align=center;verticalAlign=middle;whiteSpace=wrap;fontColor=#FFFFFF;fontStyle=1;fontSize=14;rounded=1;" vertex="1" parent="rd8PbmdwJ4o2iaEtj34t-122">
          <mxGeometry x="2" y="3" width="65" height="20" as="geometry" />
        </mxCell>
        <mxCell id="rd8PbmdwJ4o2iaEtj34t-16" value="" style="whiteSpace=wrap;html=1;fillColor=#6a00ff;strokeColor=#3700CC;fontColor=#ffffff;rounded=1;" vertex="1" parent="rd8PbmdwJ4o2iaEtj34t-122">
          <mxGeometry x="10" y="30" width="140" height="60" as="geometry" />
        </mxCell>
        <mxCell id="rd8PbmdwJ4o2iaEtj34t-17" value="推理" style="text;html=1;strokeColor=none;fillColor=none;align=center;verticalAlign=middle;whiteSpace=wrap;fontColor=#FFFFFF;fontStyle=1;rounded=1;" vertex="1" parent="rd8PbmdwJ4o2iaEtj34t-122">
          <mxGeometry x="10" y="30" width="40" height="20" as="geometry" />
        </mxCell>
        <mxCell id="rd8PbmdwJ4o2iaEtj34t-18" value="Predictor" style="whiteSpace=wrap;html=1;strokeColor=#006EAF;fontColor=#ffffff;fillColor=#6666FF;fontStyle=1;rounded=1;" vertex="1" parent="rd8PbmdwJ4o2iaEtj34t-122">
          <mxGeometry x="20" y="50" width="120" height="30" as="geometry" />
        </mxCell>
        <mxCell id="rd8PbmdwJ4o2iaEtj34t-19" value="" style="whiteSpace=wrap;html=1;fillColor=#6a00ff;strokeColor=#3700CC;fontColor=#ffffff;rounded=1;" vertex="1" parent="rd8PbmdwJ4o2iaEtj34t-122">
          <mxGeometry x="160" y="30" width="320" height="60" as="geometry" />
        </mxCell>
        <mxCell id="rd8PbmdwJ4o2iaEtj34t-20" value="训练" style="text;html=1;strokeColor=none;fillColor=none;align=center;verticalAlign=middle;whiteSpace=wrap;fontColor=#FFFFFF;fontStyle=1;rounded=1;" vertex="1" parent="rd8PbmdwJ4o2iaEtj34t-122">
          <mxGeometry x="160" y="30" width="40" height="20" as="geometry" />
        </mxCell>
        <mxCell id="rd8PbmdwJ4o2iaEtj34t-21" value="" style="whiteSpace=wrap;html=1;fillColor=#6a00ff;strokeColor=#3700CC;fontColor=#ffffff;rounded=1;" vertex="1" parent="rd8PbmdwJ4o2iaEtj34t-122">
          <mxGeometry x="490" y="30" width="180" height="60" as="geometry" />
        </mxCell>
        <mxCell id="rd8PbmdwJ4o2iaEtj34t-23" value="Imperative Engine" style="whiteSpace=wrap;html=1;strokeColor=#006EAF;fontColor=#ffffff;fillColor=#6666FF;fontStyle=1;rounded=1;" vertex="1" parent="rd8PbmdwJ4o2iaEtj34t-122">
          <mxGeometry x="320" y="50" width="150" height="30" as="geometry" />
        </mxCell>
        <mxCell id="rd8PbmdwJ4o2iaEtj34t-24" value="Executor" style="whiteSpace=wrap;html=1;strokeColor=#006EAF;fontColor=#ffffff;fillColor=#6666FF;fontStyle=1;rounded=1;" vertex="1" parent="rd8PbmdwJ4o2iaEtj34t-122">
          <mxGeometry x="170" y="50" width="140" height="30" as="geometry" />
        </mxCell>
        <mxCell id="rd8PbmdwJ4o2iaEtj34t-25" value="分布式" style="text;html=1;strokeColor=none;fillColor=none;align=center;verticalAlign=middle;whiteSpace=wrap;fontColor=#FFFFFF;fontStyle=1;rounded=1;" vertex="1" parent="rd8PbmdwJ4o2iaEtj34t-122">
          <mxGeometry x="490" y="30" width="50" height="20" as="geometry" />
        </mxCell>
        <mxCell id="rd8PbmdwJ4o2iaEtj34t-77" value="Executor" style="whiteSpace=wrap;html=1;strokeColor=#006EAF;fontColor=#ffffff;fillColor=#6666FF;fontStyle=1;rounded=1;" vertex="1" parent="rd8PbmdwJ4o2iaEtj34t-122">
          <mxGeometry x="500" y="50" width="160" height="30" as="geometry" />
        </mxCell>
        <mxCell id="rd8PbmdwJ4o2iaEtj34t-123" value="" style="group;rounded=1;" vertex="1" connectable="0" parent="1">
          <mxGeometry x="200" y="340" width="690" height="70" as="geometry" />
        </mxCell>
        <mxCell id="rd8PbmdwJ4o2iaEtj34t-81" value="" style="whiteSpace=wrap;html=1;fillColor=#647687;strokeColor=#314354;fontColor=#ffffff;rounded=1;" vertex="1" parent="rd8PbmdwJ4o2iaEtj34t-123">
          <mxGeometry x="10" width="680" height="70" as="geometry" />
        </mxCell>
        <mxCell id="rd8PbmdwJ4o2iaEtj34t-82" value="编译优化体系" style="text;html=1;strokeColor=none;fillColor=none;align=center;verticalAlign=middle;whiteSpace=wrap;fontColor=#FFFFFF;fontStyle=1;fontSize=14;rounded=1;" vertex="1" parent="rd8PbmdwJ4o2iaEtj34t-123">
          <mxGeometry x="1" width="110" height="24.38" as="geometry" />
        </mxCell>
        <mxCell id="rd8PbmdwJ4o2iaEtj34t-83" value="静态编译" style="whiteSpace=wrap;html=1;fillColor=#6a00ff;strokeColor=#3700CC;fontColor=#ffffff;fontStyle=1;rounded=1;" vertex="1" parent="rd8PbmdwJ4o2iaEtj34t-123">
          <mxGeometry x="20" y="24.379999999999995" width="120" height="35.62" as="geometry" />
        </mxCell>
        <mxCell id="rd8PbmdwJ4o2iaEtj34t-92" value="自动融合" style="whiteSpace=wrap;html=1;fillColor=#6a00ff;strokeColor=#3700CC;fontColor=#ffffff;fontStyle=1;rounded=1;" vertex="1" parent="rd8PbmdwJ4o2iaEtj34t-123">
          <mxGeometry x="285" y="24.379999999999995" width="120" height="35.62" as="geometry" />
        </mxCell>
        <mxCell id="rd8PbmdwJ4o2iaEtj34t-91" value="动静转换" style="whiteSpace=wrap;html=1;fillColor=#6a00ff;strokeColor=#3700CC;fontColor=#ffffff;fontStyle=1;rounded=1;" vertex="1" parent="rd8PbmdwJ4o2iaEtj34t-123">
          <mxGeometry x="420" y="24.379999999999995" width="120" height="35.62" as="geometry" />
        </mxCell>
        <mxCell id="rd8PbmdwJ4o2iaEtj34t-90" value="显存优化" style="whiteSpace=wrap;html=1;fillColor=#6a00ff;strokeColor=#3700CC;fontColor=#ffffff;fontStyle=1;rounded=1;" vertex="1" parent="rd8PbmdwJ4o2iaEtj34t-123">
          <mxGeometry x="560" y="24.379999999999995" width="120" height="35.62" as="geometry" />
        </mxCell>
        <mxCell id="rd8PbmdwJ4o2iaEtj34t-89" value="动态编译" style="whiteSpace=wrap;html=1;fillColor=#6a00ff;strokeColor=#3700CC;fontColor=#ffffff;fontStyle=1;rounded=1;" vertex="1" parent="rd8PbmdwJ4o2iaEtj34t-123">
          <mxGeometry x="150" y="24.379999999999995" width="120" height="35.62" as="geometry" />
        </mxCell>
        <mxCell id="rd8PbmdwJ4o2iaEtj34t-84" style="edgeStyle=orthogonalEdgeStyle;orthogonalLoop=1;jettySize=auto;html=1;exitX=0.5;exitY=1;exitDx=0;exitDy=0;" edge="1" parent="rd8PbmdwJ4o2iaEtj34t-123" source="rd8PbmdwJ4o2iaEtj34t-81" target="rd8PbmdwJ4o2iaEtj34t-81">
          <mxGeometry x="210" y="450" as="geometry" />
        </mxCell>
      </root>
    </mxGraphModel>
  </diagram>
</mxfile>
